HIERARCHY
ROOT Hips
{
  OFFSET 0.000000 95.000000 0.000000
  CHANNELS 6 Xposition Yposition Zposition Zrotation Xrotation Yrotation
  JOINT Spine
  {
    OFFSET 0.000000 10.000000 0.000000
    CHANNELS 3 Zrotation Xrotation Yrotation
    JOINT Spine1
    {
      OFFSET 0.000000 12.000000 0.000000
      CHANNELS 3 Zrotation Xrotation Yrotation
      JOINT Spine2
      {
        OFFSET 0.000000 12.000000 0.000000
        CHANNELS 3 Zrotation Xrotation Yrotation
        JOINT Neck
        {
          OFFSET 0.000000 10.000000 0.000000
          CHANNELS 3 Zrotation Xrotation Yrotation
          JOINT Head
          {
            OFFSET 0.000000 8.000000 0.000000
            CHANNELS 3 Zrotation Xrotation Yrotation
            End Site
            {
              OFFSET 0.000000 10.000000 0.000000
            }
          }
        }
        JOINT LeftShoulder
        {
          OFFSET 6.000000 8.000000 0.000000
          CHANNELS 3 Zrotation Xrotation Yrotation
          JOINT LeftArm
          {
            OFFSET 12.000000 0.000000 0.000000
            CHANNELS 3 Zrotation Xrotation Yrotation
            JOINT LeftForeArm
            {
              OFFSET 24.000000 0.000000 0.000000
              CHANNELS 3 Zrotation Xrotation Yrotation
              JOINT LeftHand
              {
                OFFSET 22.000000 0.000000 0.000000
                CHANNELS 3 Zrotation Xrotation Yrotation
                JOINT LeftHandThumb1
                {
                  OFFSET 1.800000 -1.400000 0.500000
                  CHANNELS 3 Zrotation Xrotation Yrotation
                  JOINT LeftHandThumb2
                  {
                    OFFSET 2.400000 0.000000 0.000000
                    CHANNELS 3 Zrotation Xrotation Yrotation
                    JOINT LeftHandThumb3
                    {
                      OFFSET 1.900000 0.000000 0.000000
                      CHANNELS 3 Zrotation Xrotation Yrotation
                      End Site
                      {
                        OFFSET 1.600000 0.000000 0.000000
                      }
                    }
                  }
                }
                JOINT LeftHandIndex1
                {
                  OFFSET 6.600000 1.200000 0.300000
                  CHANNELS 3 Zrotation Xrotation Yrotation
                  JOINT LeftHandIndex2
                  {
                    OFFSET 2.000000 0.000000 0.000000
                    CHANNELS 3 Zrotation Xrotation Yrotation
                    JOINT LeftHandIndex3
                    {
                      OFFSET 1.200000 0.000000 0.000000
                      CHANNELS 3 Zrotation Xrotation Yrotation
                      End Site
                      {
                        OFFSET 1.000000 0.000000 0.000000
                      }
                    }
                  }
                }
                JOINT LeftHandMiddle1
                {
                  OFFSET 7.200000 0.000000 0.300000
                  CHANNELS 3 Zrotation Xrotation Yrotation
                  JOINT LeftHandMiddle2
                  {
                    OFFSET 3.000000 0.000000 0.000000
                    CHANNELS 3 Zrotation Xrotation Yrotation
                    JOINT LeftHandMiddle3
                    {
                      OFFSET 2.000000 0.000000 0.000000
                      CHANNELS 3 Zrotation Xrotation Yrotation
                      End Site
                      {
                        OFFSET 1.600000 0.000000 0.000000
                      }
                    }
                  }
                }
                JOINT LeftHandRing1
                {
                  OFFSET 7.100000 -1.000000 0.400000
                  CHANNELS 3 Zrotation Xrotation Yrotation
                  JOINT LeftHandRing2
                  {
                    OFFSET 2.600000 0.000000 0.000000
                    CHANNELS 3 Zrotation Xrotation Yrotation
                    JOINT LeftHandRing3
                    {
                      OFFSET 1.600000 0.000000 0.000000
                      CHANNELS 3 Zrotation Xrotation Yrotation
                      End Site
                      {
                        OFFSET 1.300000 0.000000 0.000000
                      }
                    }
                  }
                }
                JOINT LeftHandPinky1
                {
                  OFFSET 6.500000 -2.000000 0.500000
                  CHANNELS 3 Zrotation Xrotation Yrotation
                  JOINT LeftHandPinky2
                  {
                    OFFSET 1.900000 0.000000 0.000000
                    CHANNELS 3 Zrotation Xrotation Yrotation
                    JOINT LeftHandPinky3
                    {
                      OFFSET 1.400000 0.000000 0.000000
                      CHANNELS 3 Zrotation Xrotation Yrotation
                      End Site
                      {
                        OFFSET 1.300000 0.000000 0.000000
                      }
                    }
                  }
                }
              }
            }
          }
        }
        JOINT RightShoulder
        {
          OFFSET -6.000000 8.000000 0.000000
          CHANNELS 3 Zrotation Xrotation Yrotation
          JOINT RightArm
          {
            OFFSET -12.000000 0.000000 0.000000
            CHANNELS 3 Zrotation Xrotation Yrotation
            JOINT RightForeArm
            {
              OFFSET -24.000000 0.000000 0.000000
              CHANNELS 3 Zrotation Xrotation Yrotation
              JOINT RightHand
              {
                OFFSET -22.000000 0.000000 0.000000
                CHANNELS 3 Zrotation Xrotation Yrotation
                JOINT RightHandThumb1
                {
                  OFFSET -1.800000 -1.400000 0.500000
                  CHANNELS 3 Zrotation Xrotation Yrotation
                  JOINT RightHandThumb2
                  {
                    OFFSET -2.400000 0.000000 0.000000
                    CHANNELS 3 Zrotation Xrotation Yrotation
                    JOINT RightHandThumb3
                    {
                      OFFSET -1.900000 0.000000 0.000000
                      CHANNELS 3 Zrotation Xrotation Yrotation
                      End Site
                      {
                        OFFSET -1.600000 0.000000 0.000000
                      }
                    }
                  }
                }
                JOINT RightHandIndex1
                {
                  OFFSET -6.600000 1.200000 0.300000
                  CHANNELS 3 Zrotation Xrotation Yrotation
                  JOINT RightHandIndex2
                  {
                    OFFSET -2.000000 0.000000 0.000000
                    CHANNELS 3 Zrotation Xrotation Yrotation
                    JOINT RightHandIndex3
                    {
                      OFFSET -1.200000 0.000000 0.000000
                      CHANNELS 3 Zrotation Xrotation Yrotation
                      End Site
                      {
                        OFFSET -1.000000 0.000000 0.000000
                      }
                    }
                  }
                }
                JOINT RightHandMiddle1
                {
                  OFFSET -7.200000 0.000000 0.300000
                  CHANNELS 3 Zrotation Xrotation Yrotation
                  JOINT RightHandMiddle2
                  {
                    OFFSET -3.000000 0.000000 0.000000
                    CHANNELS 3 Zrotation Xrotation Yrotation
                    JOINT RightHandMiddle3
                    {
                      OFFSET -2.000000 0.000000 0.000000
                      CHANNELS 3 Zrotation Xrotation Yrotation
                      End Site
                      {
                        OFFSET -1.600000 0.000000 0.000000
                      }
                    }
                  }
                }
                JOINT RightHandRing1
                {
                  OFFSET -7.100000 -1.000000 0.400000
                  CHANNELS 3 Zrotation Xrotation Yrotation
                  JOINT RightHandRing2
                  {
                    OFFSET -2.600000 0.000000 0.000000
                    CHANNELS 3 Zrotation Xrotation Yrotation
                    JOINT RightHandRing3
                    {
                      OFFSET -1.600000 0.000000 0.000000
                      CHANNELS 3 Zrotation Xrotation Yrotation
                      End Site
                      {
                        OFFSET -1.300000 0.000000 0.000000
                      }
                    }
                  }
                }
                JOINT RightHandPinky1
                {
                  OFFSET -6.500000 -2.000000 0.500000
                  CHANNELS 3 Zrotation Xrotation Yrotation
                  JOINT RightHandPinky2
                  {
                    OFFSET -1.900000 0.000000 0.000000
                    CHANNELS 3 Zrotation Xrotation Yrotation
                    JOINT RightHandPinky3
                    {
                      OFFSET -1.400000 0.000000 0.000000
                      CHANNELS 3 Zrotation Xrotation Yrotation
                      End Site
                      {
                        OFFSET -1.300000 0.000000 0.000000
                      }
                    }
                  }
                }
              }
            }
          }
        }
      }
    }
  }
  JOINT LeftUpLeg
  {
    OFFSET 10.000000 -5.000000 0.000000
    CHANNELS 3 Zrotation Xrotation Yrotation
    JOINT LeftLeg
    {
      OFFSET 0.000000 -42.000000 0.000000
      CHANNELS 3 Zrotation Xrotation Yrotation
      JOINT LeftFoot
      {
        OFFSET 0.000000 -42.000000 4.000000
        CHANNELS 3 Zrotation Xrotation Yrotation
        End Site
        {
          OFFSET 0.000000 0.000000 12.000000
        }
      }
    }
  }
  JOINT RightUpLeg
  {
    OFFSET -10.000000 -5.000000 0.000000
    CHANNELS 3 Zrotation Xrotation Yrotation
    JOINT RightLeg
    {
      OFFSET 0.000000 -42.000000 0.000000
      CHANNELS 3 Zrotation Xrotation Yrotation
      JOINT RightFoot
      {
        OFFSET 0.000000 -42.000000 4.000000
        CHANNELS 3 Zrotation Xrotation Yrotation
        End Site
        {
          OFFSET 0.000000 0.000000 12.000000
        }
      }
    }
  }
}
MOTION
Frames: 8
Frame Time: 0.033333
0.0000 95.0000 0.0000 0.0000 0.0000 0.0000 0.0000 0.0000 0.0000 0.0000 0.0000 0.0000 0.0000 0.0000 0.0000 0.0000 0.0000 0.0000 0.0000 0.0000 0.0000 0.0000 0.0000 0.0000 -71.8813 13.7075 18.8274 -2.9922 3.2505 -3.5253 77.5458 -46.6439 -177.4776 65.2498 -14.3215 -11.5256 68.5525 0.0000 0.0000 24.6135 0.0000 0.0000 -60.4791 -5.9052 -23.6644 85.5140 0.0000 0.0000 83.1115 0.0000 0.0000 -53.2798 -7.0570 -18.7874 102.0479 0.0000 0.0000 74.5369 0.0000 0.0000 -44.0540 -7.0903 -17.0464 110.0000 0.0000 0.0000 90.0000 0.0000 0.0000 -44.1636 -5.4956 -11.7795 36.0097 0.0000 0.0000 90.0000 0.0000 0.0000 0.0000 0.0000 0.0000 65.0347 -22.1636 34.1578 -163.3537 51.0582 -65.0913 -38.7396 -46.6503 -7.9119 -40.7293 -6.1813 -9.7872 6.2496 0.0000 0.0000 1.5195 0.0000 0.0000 18.1056 0.9812 8.1195 3.7615 0.0000 0.0000 2.8617 0.0000 0.0000 6.8264 -0.2546 9.0389 2.8243 0.0000 0.0000 2.8096 0.0000 0.0000 -1.4546 -0.9135 6.5177 4.5305 0.0000 0.0000 3.3108 0.0000 0.0000 -11.1068 -1.3242 2.4181 5.2394 0.0000 0.0000 2.5098 0.0000 0.0000 0.0000 0.0000 0.0000 0.0000 0.0000 0.0000 0.0000 0.0000 0.0000 0.0000 0.0000 0.0000 0.0000 0.0000 0.0000 0.0000 0.0000 0.0000
0.0000 95.0000 0.0000 0.0000 0.0000 0.0000 0.0000 0.0000 0.0000 0.0000 0.0000 0.0000 0.0000 0.0000 0.0000 0.0000 0.0000 0.0000 0.0000 0.0000 0.0000 0.0000 0.0000 0.0000 -71.4294 13.8849 19.2250 -2.9713 3.0124 -3.1983 78.0455 -47.2161 -178.4506 65.2498 -14.3215 -11.5256 68.5525 0.0000 0.0000 24.6135 0.0000 0.0000 -60.4791 -5.9052 -23.6644 85.5140 0.0000 0.0000 83.1115 0.0000 0.0000 -53.2798 -7.0570 -18.7874 102.0479 0.0000 0.0000 74.5369 0.0000 0.0000 -44.0540 -7.0903 -17.0464 110.0000 0.0000 0.0000 90.0000 0.0000 0.0000 -44.1636 -5.4956 -11.7795 36.0097 0.0000 0.0000 90.0000 0.0000 0.0000 0.0000 0.0000 0.0000 65.1854 -22.0871 33.9510 -163.6810 50.8424 -65.1021 -35.7233 -45.8866 -10.2427 -41.8582 -6.3722 -10.2325 5.7431 0.0000 0.0000 2.0087 0.0000 0.0000 18.0418 1.0231 9.9387 2.1343 0.0000 0.0000 3.0795 0.0000 0.0000 6.3398 -0.3266 10.6642 1.0454 0.0000 0.0000 2.8891 0.0000 0.0000 -2.0153 -1.1397 8.3716 3.2367 0.0000 0.0000 3.0523 0.0000 0.0000 -10.4297 -1.4324 3.1004 6.3990 0.0000 0.0000 3.9394 0.0000 0.0000 0.0000 0.0000 0.0000 0.0000 0.0000 0.0000 0.0000 0.0000 0.0000 0.0000 0.0000 0.0000 0.0000 0.0000 0.0000 0.0000 0.0000 0.0000
0.0000 95.0000 0.0000 0.0000 0.0000 0.0000 0.0000 0.0000 0.0000 0.0000 0.0000 0.0000 0.0000 0.0000 0.0000 0.0000 0.0000 0.0000 0.0000 0.0000 0.0000 0.0000 0.0000 0.0000 -71.1831 14.0797 19.5793 -3.1596 3.0138 -3.1360 77.9880 -47.4870 -178.7601 65.2498 -14.3215 -11.5256 68.5525 0.0000 0.0000 24.6135 0.0000 0.0000 -60.4791 -5.9052 -23.6644 85.5140 0.0000 0.0000 83.1115 0.0000 0.0000 -53.2798 -7.0570 -18.7874 102.0479 0.0000 0.0000 74.5369 0.0000 0.0000 -44.0540 -7.0903 -17.0464 110.0000 0.0000 0.0000 90.0000 0.0000 0.0000 -44.1636 -5.4956 -11.7795 36.0097 0.0000 0.0000 90.0000 0.0000 0.0000 0.0000 0.0000 0.0000 65.3956 -22.1311 33.8871 -164.0959 50.2304 -65.2231 -38.3920 -47.7492 -6.9280 -41.8934 -6.1353 -11.0556 6.5999 0.0000 0.0000 3.5056 0.0000 0.0000 18.3523 1.0006 9.4654 1.8506 0.0000 0.0000 3.1640 0.0000 0.0000 6.9691 -0.3272 10.1416 1.1523 0.0000 0.0000 2.9189 0.0000 0.0000 -2.0520 -1.0879 7.9535 1.8575 0.0000 0.0000 3.2455 0.0000 0.0000 -13.8508 -1.2689 1.3252 3.9681 0.0000 0.0000 1.6391 0.0000 0.0000 0.0000 0.0000 0.0000 0.0000 0.0000 0.0000 0.0000 0.0000 0.0000 0.0000 0.0000 0.0000 0.0000 0.0000 0.0000 0.0000 0.0000 0.0000
0.0000 95.0000 0.0000 0.0000 0.0000 0.0000 0.0000 0.0000 0.0000 0.0000 0.0000 0.0000 0.0000 0.0000 0.0000 0.0000 0.0000 0.0000 0.0000 0.0000 0.0000 0.0000 0.0000 0.0000 -71.1045 14.1387 19.6885 -3.2078 2.9712 -3.0575 77.9829 -47.6170 -178.9207 65.2498 -14.3215 -11.5256 68.5525 0.0000 0.0000 24.6135 0.0000 0.0000 -60.4791 -5.9052 -23.6644 85.5140 0.0000 0.0000 83.1115 0.0000 0.0000 -53.2798 -7.0570 -18.7874 102.0479 0.0000 0.0000 74.5369 0.0000 0.0000 -44.0540 -7.0903 -17.0464 110.0000 0.0000 0.0000 90.0000 0.0000 0.0000 -44.1636 -5.4956 -11.7795 36.0097 0.0000 0.0000 90.0000 0.0000 0.0000 0.0000 0.0000 0.0000 65.5965 -22.1662 33.8160 -164.1070 50.2369 -65.3101 -39.5504 -47.9526 -5.9679 -40.3917 -5.7380 -10.8837 6.7746 0.0000 0.0000 3.1471 0.0000 0.0000 20.0546 0.9308 8.5758 2.5292 0.0000 0.0000 3.3852 0.0000 0.0000 8.1093 -0.3072 9.1038 1.2273 0.0000 0.0000 2.9971 0.0000 0.0000 0.1672 -1.1060 7.8548 1.6384 0.0000 0.0000 3.6902 0.0000 0.0000 -9.6266 -1.2932 2.6251 5.1546 0.0000 0.0000 3.1886 0.0000 0.0000 0.0000 0.0000 0.0000 0.0000 0.0000 0.0000 0.0000 0.0000 0.0000 0.0000 0.0000 0.0000 0.0000 0.0000 0.0000 0.0000 0.0000 0.0000
0.0000 95.0000 0.0000 0.0000 0.0000 0.0000 0.0000 0.0000 0.0000 0.0000 0.0000 0.0000 0.0000 0.0000 0.0000 0.0000 0.0000 0.0000 0.0000 0.0000 0.0000 0.0000 0.0000 0.0000 -71.1654 13.9569 19.4163 -3.1554 2.9614 -3.0755 78.0800 -47.4221 -178.7275 65.2498 -14.3215 -11.5256 68.5525 0.0000 0.0000 24.6135 0.0000 0.0000 -60.4791 -5.9052 -23.6644 85.5140 0.0000 0.0000 83.1115 0.0000 0.0000 -53.2798 -7.0570 -18.7874 102.0479 0.0000 0.0000 74.5369 0.0000 0.0000 -44.0540 -7.0903 -17.0464 110.0000 0.0000 0.0000 90.0000 0.0000 0.0000 -44.1636 -5.4956 -11.7795 36.0097 0.0000 0.0000 90.0000 0.0000 0.0000 0.0000 0.0000 0.0000 65.8704 -22.2103 33.7139 -164.4673 49.7894 -65.4650 -41.9281 -50.7226 -2.8817 -40.7118 -6.0659 -10.1414 5.9904 0.0000 0.0000 1.9495 0.0000 0.0000 20.3420 0.9227 8.9266 2.0940 0.0000 0.0000 3.5437 0.0000 0.0000 8.5624 -0.3516 9.4657 0.8892 0.0000 0.0000 2.9679 0.0000 0.0000 0.1337 -1.1264 8.0018 2.5612 0.0000 0.0000 3.7864 0.0000 0.0000 -11.1179 -1.2287 1.9449 4.8258 0.0000 0.0000 2.7373 0.0000 0.0000 0.0000 0.0000 0.0000 0.0000 0.0000 0.0000 0.0000 0.0000 0.0000 0.0000 0.0000 0.0000 0.0000 0.0000 0.0000 0.0000 0.0000 0.0000
0.0000 95.0000 0.0000 0.0000 0.0000 0.0000 0.0000 0.0000 0.0000 0.0000 0.0000 0.0000 0.0000 0.0000 0.0000 0.0000 0.0000 0.0000 0.0000 0.0000 0.0000 0.0000 0.0000 0.0000 -71.4625 13.9873 19.3540 -2.9794 3.0380 -3.2206 77.9347 -47.2837 -178.4772 65.2498 -14.3215 -11.5256 68.5525 0.0000 0.0000 24.6135 0.0000 0.0000 -60.4791 -5.9052 -23.6644 85.5140 0.0000 0.0000 83.1115 0.0000 0.0000 -53.2798 -7.0570 -18.7874 102.0479 0.0000 0.0000 74.5369 0.0000 0.0000 -44.0540 -7.0903 -17.0464 110.0000 0.0000 0.0000 90.0000 0.0000 0.0000 -44.1636 -5.4956 -11.7795 36.0097 0.0000 0.0000 90.0000 0.0000 0.0000 0.0000 0.0000 0.0000 65.9201 -22.2102 33.6836 -164.4873 49.7019 -65.4450 -39.4284 -45.7538 -7.4327 -40.3976 -5.8666 -10.4825 6.6311 0.0000 0.0000 2.3291 0.0000 0.0000 19.1272 0.9561 8.3054 2.3822 0.0000 0.0000 3.8253 0.0000 0.0000 7.6940 -0.2514 8.5096 1.5431 0.0000 0.0000 3.2157 0.0000 0.0000 -0.3550 -1.0316 7.3645 1.9927 0.0000 0.0000 4.2575 0.0000 0.0000 -12.1198 -1.1282 1.1419 4.0197 0.0000 0.0000 2.0194 0.0000 0.0000 0.0000 0.0000 0.0000 0.0000 0.0000 0.0000 0.0000 0.0000 0.0000 0.0000 0.0000 0.0000 0.0000 0.0000 0.0000 0.0000 0.0000 0.0000
0.0000 95.0000 0.0000 0.0000 0.0000 0.0000 0.0000 0.0000 0.0000 0.0000 0.0000 0.0000 0.0000 0.0000 0.0000 0.0000 0.0000 0.0000 0.0000 0.0000 0.0000 0.0000 0.0000 0.0000 -71.7220 13.8597 19.0893 -3.1942 3.2668 -3.4841 77.3759 -46.8250 -177.6151 65.2498 -14.3215 -11.5256 68.5525 0.0000 0.0000 24.6135 0.0000 0.0000 -60.4791 -5.9052 -23.6644 85.5140 0.0000 0.0000 83.1115 0.0000 0.0000 -53.2798 -7.0570 -18.7874 102.0479 0.0000 0.0000 74.5369 0.0000 0.0000 -44.0540 -7.0903 -17.0464 110.0000 0.0000 0.0000 90.0000 0.0000 0.0000 -44.1636 -5.4956 -11.7795 36.0097 0.0000 0.0000 90.0000 0.0000 0.0000 0.0000 0.0000 0.0000 65.7379 -22.2433 33.8431 -164.0658 49.8371 -65.2596 -37.3828 -41.9354 -10.6619 -40.4080 -5.8280 -10.6145 6.1014 0.0000 0.0000 1.8324 0.0000 0.0000 18.8300 0.9622 8.1516 3.3101 0.0000 0.0000 3.8311 0.0000 0.0000 7.1101 -0.1923 7.8668 2.1305 0.0000 0.0000 3.0413 0.0000 0.0000 -0.7697 -0.8758 6.2261 2.9141 0.0000 0.0000 4.2008 0.0000 0.0000 -10.7058 -0.9896 0.9011 4.2151 0.0000 0.0000 2.6617 0.0000 0.0000 0.0000 0.0000 0.0000 0.0000 0.0000 0.0000 0.0000 0.0000 0.0000 0.0000 0.0000 0.0000 0.0000 0.0000 0.0000 0.0000 0.0000 0.0000
0.0000 95.0000 0.0000 0.0000 0.0000 0.0000 0.0000 0.0000 0.0000 0.0000 0.0000 0.0000 0.0000 0.0000 0.0000 0.0000 0.0000 0.0000 0.0000 0.0000 0.0000 0.0000 0.0000 0.0000 -72.1090 13.5947 18.5972 -2.9773 3.2718 -3.5579 77.3316 -46.4374 -177.1129 65.2498 -14.3215 -11.5256 68.5525 0.0000 0.0000 24.6135 0.0000 0.0000 -60.4791 -5.9052 -23.6644 85.5140 0.0000 0.0000 83.1115 0.0000 0.0000 -53.2798 -7.0570 -18.7874 102.0479 0.0000 0.0000 74.5369 0.0000 0.0000 -44.0540 -7.0903 -17.0464 110.0000 0.0000 0.0000 90.0000 0.0000 0.0000 -44.1636 -5.4956 -11.7795 36.0097 0.0000 0.0000 90.0000 0.0000 0.0000 0.0000 0.0000 0.0000 65.7009 -22.2649 33.8976 -163.8280 50.1480 -65.2636 -36.2852 -40.6326 -11.6686 -41.5913 -5.9163 -11.4773 6.1691 0.0000 0.0000 2.8439 0.0000 0.0000 18.0162 0.9842 8.1482 2.5911 0.0000 0.0000 3.0810 0.0000 0.0000 6.8575 -0.1977 8.0706 2.3280 0.0000 0.0000 3.1409 0.0000 0.0000 -0.8675 -0.8680 6.1667 3.5439 0.0000 0.0000 4.4958 0.0000 0.0000 -10.8115 -0.9879 0.8595 4.1253 0.0000 0.0000 3.2066 0.0000 0.0000 0.0000 0.0000 0.0000 0.0000 0.0000 0.0000 0.0000 0.0000 0.0000 0.0000 0.0000 0.0000 0.0000 0.0000 0.0000 0.0000 0.0000 0.0000
